/* XPM */
static char *result[] = {
/* columns rows colors chars-per-pixel */
"50 50 117 2 ",
"   c #020202",
".  c #080807",
"X  c #070708",
"o  c #0B0B0B",
"O  c #100F0E",
"+  c #10100E",
"@  c #151512",
"#  c #181714",
"$  c #1A1A17",
"%  c #1C1D1C",
"&  c #1F2222",
"*  c #222525",
"=  c #2C2C26",
"-  c #242728",
";  c #272B2B",
":  c #2A2D2C",
">  c #302E29",
",  c #35342D",
"<  c #38362F",
"1  c #2C2F30",
"2  c #2D3031",
"3  c #323636",
"4  c #3A3832",
"5  c #333738",
"6  c #363A3B",
"7  c #3A3D3C",
"8  c #413F37",
"9  c #44423A",
"0  c #49473E",
"q  c #4A483F",
"w  c #3C3F40",
"e  c #3E4343",
"r  c #414443",
"t  c #4C4B42",
"y  c #424748",
"u  c #464B4C",
"i  c #4A4D4D",
"p  c #504F45",
"a  c #525047",
"s  c #565449",
"d  c #59574C",
"f  c #5C594E",
"g  c #4A4E50",
"h  c #4D5354",
"j  c #515555",
"k  c #5E5C50",
"l  c #535758",
"z  c #555B5C",
"x  c #5A5D5E",
"c  c #615F53",
"v  c #666357",
"b  c #676558",
"n  c #686658",
"m  c #6D6A5D",
"M  c #565F60",
"N  c #5A5E60",
"B  c #5B6465",
"V  c #5E6768",
"C  c #5E6869",
"Z  c #626768",
"A  c #636B6C",
"S  c #686D6F",
"D  c #716F61",
"F  c #757264",
"G  c #696E70",
"H  c #677172",
"J  c #6B7475",
"K  c #6D7778",
"L  c #6E7879",
"P  c #737C7D",
"I  c #787E7E",
"U  c #778082",
"Y  c #7A8384",
"T  c #7D8788",
"R  c #808789",
"E  c #828C8E",
"W  c #848F91",
"Q  c #869193",
"!  c #8A9496",
"~  c #8C9699",
"^  c #8E999B",
"/  c #90979A",
"(  c #939B9D",
")  c #9B9F9F",
"_  c #949EA0",
"`  c #96A1A4",
"'  c #9AA1A3",
"]  c #9FA9AB",
"[  c #A4AAAB",
"{  c #A4ADB0",
"}  c #ACB4B7",
"|  c #ACB6B9",
" . c #AEB9BB",
".. c #B3BCBE",
"X. c #B8BABB",
"o. c #BAC1C2",
"O. c #BCC6C9",
"+. c #BDC8CB",
"@. c #C0C5C6",
"#. c #C4CFD2",
"$. c #C6D0D3",
"%. c #CBD3D6",
"&. c #CFD9DD",
"*. c #D5DDDE",
"=. c #D3DEE0",
"-. c #DAE2E5",
";. c #DDE7E9",
":. c #DFE8EA",
">. c #E1E3E3",
",. c #E3EBEC",
"<. c #E8EBEB",
"1. c #E4EEF1",
"2. c #E7F1F3",
"3. c #EBF4F5",
"4. c #ECF6F8",
"5. c #ECF8FB",
"6. c #F3FAFA",
/* pixels */
"b b b b b b b b b b b b b b b b b b b b n n b b b b b b b b b b b b b b b b b b b b b b b b b b b b ",
"b b b b b b b b b b b b b b b b b b b b n n b b b b b b b b b b b b b b b b b b b b b b b b b b b b ",
"b b b b b b b b b b b b b b b b n n b b v v v v v v n b b b b b b b b b b b b b b b b b b b b b b b ",
"b b b b b b b b b b b b b b b b c n n c v n v b v v n n b b b b b b b b b b b b b b b b b b b b b b ",
"b b b b b b b b b b b b b b b b n n n n v n n b n n b b b b b b b b b b b b b b b b b b b b b b b b ",
"b b b b b b b b b b b b b b b b c p 0 t t t t t t d b n b b b b b b b b b b b b b b b b b b b b b b ",
"b b b b b b b b b b b b b b b b c # o O O O + @ + 8 n n v v v n b b b b b b b b b b b b b b b b b b ",
"b b b b b b b b b b b b b b b b c X     . . . o o 4 n n n v b b b b b b b b b b b b b b b b b b b b ",
"b b b b b b b b b b b b b b b b k O   * u x z z x i 9 9 f n v v b b b b b b b b b b b b b b b b b b ",
"b b b b b b b b b b b b b b b b k +   j X.,.,.:.>.Z $ O 9 n n v b b b b b b b b b b b b b b b b b b ",
"b b b b b b b b b b b b b b b b c +   z @.4.1.2.3.Z @ O 9 v n n b b n n b b b b b b b b b b b b b b ",
"b b b b b b b b b b b b b b b b k +   r ( o. . .X.) W Y i > 4 d n b b v b b b b b b b b b b b b b b ",
"b b b b b b b b b b b b b b n b k +   5 U ` ! ^ ! O.,.%.l   $ p m v v n v n v v b b b b b b b b b b ",
"b b b b b b b b b b b b b b n n k O   3 P ^ ! ! W @.4.=.z   @ p m v v n n n n v b b b b b b b b b b ",
"b b b b b b b b b b b b b v v n c +   3 P ^ ! ! Q O.4.*.j   @ p m v b b v v v v b b b b b b v n b b ",
"b b b b b b b b b b b b b b v v k +   5 P ^ ! ! Q O.4.=.j   # q m b b b n n b b b b b b n n n n b b ",
"b b b b n n n n v v v v c c c v f O   5 Y _ ~ / ! +.3.=.l   @ t n c c c c c c c c c v b b v v v b b ",
"b b b b n n c n v v v , # @ # # @ o . j ..>.=.=.=.;.5.=.z   X O @ @ @ @ @ @ @ @ @ + q v b b v v b b ",
"b b b b n b n v n m n =               h @.4.2.6.6.4.5.=.l                           9 b v b b b b b ",
"b b b b n v n n d t t u g g i i i h i R %.2.%.[ [ #.3.=.J 1 1 * & & & & - 2 2 %     9 v b v b b b b ",
"b b b b v v n n 9 % $ I X.o.o.o.o.o.o.%.,.1.{ 6 w _ 1.,.' L J M h h h h B L K y     9 b b b b b b b ",
"b b n v v n v n 4 o . / 2.4.3.4.4.4.6.3.1.:./ X o Y >.,.| ( ! K C A A C P ~ ! z     9 b b v b b b b ",
"b b v n n f 0 t t j j _ #.#.#.#.$.:.2.%.} _ G X X N _ ' ~ ! T H B B B B K Q E h     9 b b b b b b b ",
"b n v b n q o o S -.:. .^ ~ ~ ! ( -.6._ 6 o o     X X @ B ~ W J B B C B L Q Q l     9 b v b b b b b ",
"b b n b b 0 X o S ,.<. .! ! ! ! _ -.6.( 3 X .         o N ~ W H B B B B L ^ ~ z   . 9 v n b b b b b ",
"b b v b b 0 o o S ,.1. .~ ! ! ! _ =.3.+.! P g   X : i g P ! W Y P P P U C h u e , , s v n v b b b b ",
"b b v b n 0 o o G ,.2...( ~ ~ ~ _ ,.6.2.<.=./   X h Q ~ ! ~ ~ ~ ~ ~ ! ` M % + : n v v b b b b b b b ",
"b b v n n 0 o o Z *.-.[ E E E E ! &.=.;.1.,._ o o z ~ ~ W E E W W Q T ! l % + > m n n b v b b b b b ",
"n n v n n 0 X X : x x u 7 7 6 6 w M z I ] | ! M z P ~ W z 6 6 6 7 7 6 7 7 9 0 p n v b n b b b b b b ",
"n v n v c 0 X                         5 U ^ ! ! ! ~ ^ T 5               = f n v v v n v b b b b b b ",
"v n v n n q @ @ @ @ @ @ @ @ @ @ @ .   3 U ^ W W W W ! U 2   . o # @ @ @ < k n b v b b b b b b b b b ",
"n n v n v k q 0 0 0 0 0 0 t 0 t 8 o   5 P ^ T J J J L A ;   O 4 t 0 q q s c n v n b b b b b b b b b ",
"v b b v v n m m m m m m m m D m b +   5 I ^ U B B B V z &   # a F m m m m b v b b b b b b b b b b b ",
"n n b n b v b v v v v v v v v v f +   5 P ^ Y C C V C M -   # t m c v v v b b v b b b b b b b b b b ",
"b b b b b b b b n b b b b b b b f @   5 P ~ U C C C C B -   # t m v v b b b b b b b b b b b b b b b ",
"b b b b b b b b n b b b b b b b f o   5 Y ` T B B B B z *   # t m v b b b b b b b b b b b b b b b b ",
"b b b b b b b b b b b b b b v b v = = 7 l B Z L K K L H ;   # t m v b b b b b b b b b b b b b b b b ",
"b b n v b b b b b b b b b b v v b d f 9 - % e W Q Q Q T 2   # t m v b b b b b b b b b b b b b b b b ",
"b b b b b b b b b b b b b b n v b v D 0 $ o 3 Q Q T ~ T 5   # t D v b b b b b b b b b b b b b b b b ",
"b b b b b b b b b b b b b n v n b b n a < = 7 z z z B h &   # t m c b b b b b b b b b b b b b b b b ",
"b b b b b b b b b b b b b b b b b b b v n v 9               # t m v b b b b b b b b b b b b b b b b ",
"b b b b b b b b b b b b b b b b b v b v v b 4               @ t m v b b b b b b b b b b b b b b b b ",
"b b b b b b b b b b b b b b b b b b b v v n f 9 8 8 8 8 9 8 0 f n b b b b b b b b b b b b b b b b b ",
"b b b b b b b b b b b b b b b b b b b b v v b v v v v v v v v v b b b b b b b b b b b b b b b b b b ",
"b b b b b b b b b b b b b b b b b b b b b v b b b b b b n n v b b v b b b b b b b b b b b b b b b b ",
"b b b b b b b b b b b b b b b b b b b b b b b b b v b b v v b n b b b b b b b b b b b b b b b b b b ",
"b b b b b b b b b b b b b b b b b b b b b b b b b b b b b b b b b b b b b b b b b b b b b b b b b b ",
"b b b b b b b b b b b b b b b b b b b b b b b b b b b b b b b b b b b b b b b b b b b b b b b b b b ",
"b b b b b b b b b b b b b b b b b b b b b b b b b b b b b b b b b b b b b b b b b b b b b b b b b b ",
"b b b b b b b b b b b b b b b b b b b b b b b b b b b b b b b b b b b b b b b b b b b b b b b b b b "
};
