/* XPM */
static char *result[] = {
/* columns rows colors chars-per-pixel */
"50 50 117 2 ",
"   c #020302",
".  c #080707",
"X  c #060904",
"o  c #090C06",
"O  c #0B0C0A",
"+  c #0C1406",
"@  c #0C130A",
"#  c #0F180D",
"$  c #11110E",
"%  c #141D0D",
"&  c #0F1A10",
"*  c #131311",
"=  c #181715",
"-  c #131C12",
";  c #1A1916",
":  c #1E1E1A",
">  c #201F1B",
",  c #152415",
"<  c #1B2413",
"1  c #1E2E14",
"2  c #1B251A",
"3  c #192A19",
"4  c #1E3013",
"5  c #1E331E",
"6  c #23231E",
"7  c #223416",
"8  c #253A17",
"9  c #25341A",
"0  c #29351F",
"q  c #263919",
"w  c #2A3E1D",
"e  c #262621",
"r  c #282622",
"t  c #2B2B25",
"y  c #2F2E28",
"u  c #312F29",
"i  c #213521",
"p  c #2B3325",
"a  c #243B24",
"s  c #2E3B22",
"d  c #303E23",
"f  c #34332D",
"g  c #38362F",
"h  c #353B2B",
"j  c #393D2E",
"k  c #393731",
"l  c #3C3C33",
"z  c #403E37",
"x  c #2C441D",
"c  c #2F481E",
"v  c #314B1F",
"b  c #264026",
"n  c #2A4225",
"m  c #294128",
"M  c #2D4C2D",
"N  c #334623",
"B  c #314C21",
"V  c #3C5C26",
"C  c #3C5928",
"Z  c #3C4031",
"A  c #3B4835",
"S  c #325432",
"D  c #375D37",
"F  c #375D38",
"G  c #385E38",
"H  c #3F6228",
"J  c #3A623A",
"K  c #414236",
"L  c #45433B",
"P  c #49473E",
"I  c #4A493F",
"U  c #445434",
"Y  c #42642A",
"T  c #446A2C",
"R  c #486F2E",
"E  c #49712F",
"W  c #4E603C",
"Q  c #4F7A32",
"!  c #517D34",
"~  c #517F3C",
"^  c #4C4A41",
"/  c #504E44",
"(  c #485F43",
")  c #535147",
"_  c #56544A",
"`  c #59574D",
"'  c #5C5A4E",
"]  c #5E5C50",
"[  c #605E52",
"{  c #496044",
"}  c #5F634F",
"|  c #597443",
" . c #5D7945",
".. c #617F47",
"X. c #666457",
"o. c #646B53",
"O. c #676558",
"+. c #686659",
"@. c #6C695C",
"#. c #6F6D60",
"$. c #706E61",
"%. c #767365",
"&. c #538136",
"*. c #588C37",
"=. c #568538",
"-. c #588738",
";. c #5A8B3A",
":. c #5E923C",
">. c #61963E",
",. c #629A3F",
"<. c #618147",
"1. c #638448",
"2. c #639740",
"3. c #649A40",
"4. c #67A042",
"5. c #6AA244",
"6. c #6FAC48",
/* pixels */
"O.O.O.O.O.O.O.O.O.O.O.O.O.O.O.O.O.O.O.O.O.O.O.O.O.O.O.O.O.O.O.O.O.O.O.O.O.O.O.O.O.O.O.O.O.O.O.O.O.O.",
"O.O.O.O.O.O.O.O.O.O.O.O.O.O.O.O.O.O.O.O.O.O.O.O.O.O.O.O.O.O.O.O.O.O.O.O.O.O.O.+.O.O.O.O.O.O.O.O.O.O.",
"O.O.O.O.O.O.O.O.O.O.O.O.O.O.O.O.O.O.O.O.O.O.O.O.O.O.O.O.O.O.O.O.O.O.O.O.O.O.O.O.O.O.O.O.O.X.O.O.X.O.",
"O.O.O.O.O.O.O.O.O.O.O.O.O.O.O.O.O.O.O.O.O.O.O.O.O.O.O.O.O.O.O.O.O.O.O.+.O.O.O.[ O.[ O.O.X.X.O.O.X.X.",
"O.O.O.O.O.O.O.O.O.O.O.O.O.O.O.O.O.O.O.O.O.O.O.O.O.O.O.O.O.O.O.O.O.O.O.+.O.+.@.@.@.@.@.@.@.@.@.@.@.@.",
"O.O.O.O.O.O.O.O.O.O.O.O.O.O.O.O.O.O.O.O.O.O.O.O.O.O.O.O.O.O.O.O.O.O.O.[ O.X.` _ _ _ ) ) _ ` ) ) _ ) ",
"O.O.O.O.O.O.O.O.O.O.O.O.O.O.O.O.O.O.O.O.O.O.O.O.O.O.O.O.O.O.O.O.O.O.O.X.O.` k u y y y y u y y y u y ",
"O.O.O.O.O.O.O.O.O.O.O.O.O.O.O.O.O.O.O.O.O.O.O.O.O.O.O.O.O.O.O.X.O.O.O.X.@./ O                       ",
"O.O.O.O.O.O.O.O.O.O.O.O.O.O.O.O.O.O.O.O.X.+.+.+.O.O.O.O.O.O.O.O.O.O.O.+.+.) $                       ",
"O.O.O.O.O.O.O.O.O.O.O.X.X.O.O.X.X.X.X.O.X.X.+.+.O.O.O.O.O.O.O.X.+.[ ` l k j N c c x x x x x c 9 %   ",
"O.O.O.O.O.O.O.O.+.X.O.O.+.+.O.O.O.O.O.+.O.O.+.[ O.O.O.O.O.X.O.X.@.X.P ; O < E &.-.&.-.=.&.-.;.T 1   ",
"O.O.O.O.O.O.O.O.O.X.+.@.@.@.#.@.#.#.#.#.@.+.X.O.O.O.O.O.O.O.X.@.$.+.P $   % Q >.3.>.,.,.3.3.6.Q 8   ",
"O.O.O.O.O.O.O.O.X.+.X.) ^ I ^ ^ P P P P ^ ' +.O.X.X.O.O.O.O.O.) ) I Z 9 7 x ! >.>.:.:.>.=.R E C s 6 ",
"O.O.O.O.O.O.O.O.X.+.] f 6 : > : > > > > r L @.O.X.O.O.O.X.O.O.k 6 6 w Y R E *.;.>.:.>.;.T 7 7 9 Z / ",
"O.O.O.O.O.O.O.O.X.@.' : .               O k @.X.X.O.X.O.O.O.O.e . o 7 ;.,.,.>.>.;.>.>.>.V o   ; L %.",
"O.O.O.O.O.O.O.O.X.+.' 6 O   .           $ l +.X.X.O.O.X.O.O.O.e O X 7 &.,.;.;.>.>.>.;.:.H $   < L @.",
"O.O.O.O.O.O.O.O.X.+.` e o . - a a a a m a i r e z ] +.X.X.X.X.e O @ 7 &.>.:.:.>.-.Y 7 7 d K L I ' O.",
"O.O.O.O.O.O.O.O.X.#.` 6 . . , F G G D G S 3   . f ' #.+.O.@.+.e . o 1 =.,.;.;.3.&.B o X 6 ` X.X.O.O.",
"O.O.O.O.O.O.O.O.X.+.] e $ @ 3 F G G G J S 5 X o f _ @.X.O.O.X.e @ # 7 =.>.:.;.3.&.c     6 X.@.+.O.O.",
"O.O.O.O.O.O.O.O.O.+.] l f t p i i m S J S b 3 3 t k l l l l l n x x C ;.>.:.:.3.&.c     r ' +.O.X.O.",
"O.O.O.O.O.O.O.O.O.O.X.] ] _ l @ @ 3 M J F S S S i - * * $ $ = C Q =.=.:.>.:.:.3.&.c     6 ' +.+.o.+.",
"O.O.O.O.O.O.O.O.O.O.O.O.#.O.L     - M F F F J J 5 o         X H ;.3.>.:.:.:.;.>.&.B     e } +.+.+.+.",
"O.X.O.O.X.X.X.X.X.X.O.X.O.[ L * * 2 m S S S F J a - @ @ o   X V ;.>.:.:.:.:.:.3.&.B X   e ' +.+.+.X.",
"X.X.X.X.X.X.X.X.X.X.X.X.O.O.[ _ ' L 2 @ & a J F S S S a &   X V =.>.:.:.:.:.:.3.&.c     e ] +.+.X.X.",
"O.O.#.#.+.#.#.#.@.@.@.+.+.O.X.[ #.^ ;   @ i J F F F J M -     V ;.>.:.:.:.:.;.3.&.v     6 ] +.X.O.O.",
"X.] ` ` _ _ _ _ ' _ ` [ O.O.X.X.#.^ ;   O i J F F G J M 3 @ # H -.2.:.:.:.:.:.>.&.v     0 ] +.+.X.O.",
"] A y y y t y y y y g ) X.O.X.X.+.^ ;   O a J F F G G S m i a E ;.2.:.:.:.:.:.3.! v     6 ] +.+.X.O.",
"' r . . . . . . . . = L X.@.X.X.+.^ =   @ 5 J G F F F F F F F &.;.2.:.:.>.:.:.3.&.v     r ] +.+.X.+.",
"' e       . X X X X = L ] X.[ X.+.^ ; . @ a G G G G F F J F J &.;.>.:.:.:.:.:.,.! v X   6 ] +.+.X.O.",
"' e   X = 4 q 7 q q w j A ^ / X.+._ k e y A { { ( ( ( ( { ( ( | ..<.<.<.<.<.<.1. .U r r z ] +.+.X.O.",
"' e   X c ! :.;.;.:.&.7 O O r O.X.X.X.X.[ O.O.O.+.O.O.O.O.O.O.O.O.O.O.+.+.X.O.O.X.X.X.X.X.X.O.X.X.+.",
"' 6   o B -.5.3.:.2.&.3 o . 6 #.#.#.O.X.O.O.O.O.O.O.O.O.O.O.O.O.O.O.O.X.X.+.X.+.X.X.X.X.+.O.X.O.O.O.",
"] k 6 6 c Y E E -.,.-.v 9 7 s ^ ^ / [ +.+.X.+.X.X.O.O.O.X.O.X.X.X.X.X.X.+.X.X.X.+.X.X.X.X.X.+.X.O.O.",
"X.) ^ ^ h 9 7 w &.>.:.E E Y B 6 > f ` +.O.O.X.X.O.O.X.O.X.X.X.X.X.+.X.X.+.o.X.X.X.X.X.X.X.X.+.+.O.O.",
"O.+.@.%.f $ X $ Q :.>.>.4.>.Y     > ^ @.+.X.O.O.O.O.O.O.O.O.O.O.X.+.+.+.O.O.O.O.+.X.+.+.+.X.X.+.O.O.",
"O.X.+.O.f $ X % ! :.:.:.>.-.V .   > / @.+.X.O.O.O.O.O.O.O.O.O.O.+.X.+.X.O.O.O.O.X.+.X.+.o.+.X.+.O.O.",
"X.X.+.+.g * X % Q :.:.:.>.-.V .   > / @.O.X.O.O.O.O.O.O.O.O.O.O.X.+.O.O.O.O.O.O.X.+.X.+.+.O.O.O.O.O.",
"O.X.+.+.f $ X % Q :.:.:.>.-.V     > / @.O.X.O.O.O.O.O.O.O.O.O.O.+.X.O.O.O.O.O.O.+.X.+.X.+.+.O.O.O.O.",
"O.X.O.+.f @   + &.:.:.:.:.*.V     > / @.O.O.O.O.O.O.O.O.O.O.O.O.+.X.O.O.O.O.O.O.X.+.X.+.X.+.O.O.O.O.",
"O.X.+.+.I g f j ~ <.<.<.1. .W f y z ` +.+.o.O.O.O.O.O.O.O.O.O.O.X.+.O.O.O.O.O.O.X.X.+.X.+.X.+.O.O.O.",
"X.+.X.+.[ ` _ ` } o.+.o.o.+.} ` ` ' X.O.O.O.O.O.O.O.O.O.O.O.O.O.O.O.O.O.O.O.O.O.+.X.O.O.O.O.O.O.O.O.",
"+.X.+.X.+.@.@.+.+.+.+.[ +.[ @.@.@.O.X.X.O.O.O.O.O.O.O.O.O.O.O.O.O.O.O.O.O.O.O.O.X.+.O.O.O.O.O.O.O.O.",
"X.X.X.+.X.X.X.X.O.O.O.O.X.O.X.X.X.X.O.O.+.X.+.O.O.O.O.O.O.O.O.O.O.O.O.O.O.O.O.O.X.O.O.O.O.O.O.O.O.O.",
"+.+.+.X.+.X.X.X.O.O.O.O.O.O.O.O.X.O.O.O.X.+.X.O.O.O.O.O.O.O.O.O.O.O.O.O.O.O.O.O.O.O.O.O.O.O.O.O.O.O.",
"X.+.X.X.O.O.O.O.O.O.O.O.O.O.O.O.O.O.O.O.O.O.O.O.O.O.O.O.O.O.O.O.O.O.O.O.O.O.O.O.O.O.O.O.O.O.O.O.O.O.",
"+.X.X.+.O.O.O.O.O.O.O.O.O.O.O.O.O.O.O.O.O.O.O.O.O.O.O.O.O.O.O.O.O.O.O.O.O.O.O.O.O.O.O.O.O.O.O.O.O.O.",
"O.O.+.X.O.O.O.O.O.O.O.O.O.O.O.O.O.O.O.O.O.O.O.O.O.O.O.O.O.O.O.O.O.O.O.O.O.O.O.O.O.O.O.O.O.O.O.O.O.O.",
"O.O.O.X.O.O.O.O.O.O.O.O.O.O.O.O.O.O.O.O.O.O.O.O.O.O.O.O.O.O.O.O.O.O.O.O.O.O.O.O.O.O.O.O.O.O.O.O.O.O.",
"O.O.O.O.O.O.O.O.O.O.O.O.O.O.O.O.O.O.O.O.O.O.O.O.O.O.O.O.O.O.O.O.O.O.O.O.O.O.O.O.O.O.O.O.O.O.O.O.O.O.",
"O.O.O.O.O.O.O.O.O.O.O.O.O.O.O.O.O.O.O.O.O.O.O.O.O.O.O.O.O.O.O.O.O.O.O.O.O.O.O.O.O.O.O.O.O.O.O.O.O.O."
};
