/* XPM */
static char *result[] = {
/* columns rows colors chars-per-pixel */
"50 50 174 2 ",
"   c #020202",
".  c #090404",
"X  c #0B0806",
"o  c #0E0508",
"O  c #090908",
"+  c #150D07",
"@  c #15060B",
"#  c #150B0D",
"$  c #13120E",
"%  c #151412",
"&  c #191614",
"*  c #1C1A14",
"=  c #230B0A",
"-  c #2A0B0D",
";  c #330F0E",
":  c #2A160D",
">  c #2A0F14",
",  c #271913",
"<  c #38101E",
"1  c #28231B",
"2  c #2E2A1E",
"3  c #282722",
"4  c #2D2B25",
"5  c #312F29",
"6  c #34332C",
"7  c #3E3C35",
"8  c #4B1D14",
"9  c #531D1A",
"0  c #492B17",
"q  c #68291C",
"w  c #68351F",
"e  c #451324",
"r  c #4B1624",
"t  c #5C112D",
"y  c #5C1A2B",
"u  c #5E1533",
"i  c #5F1A34",
"p  c #621731",
"a  c #631B35",
"s  c #6A1D35",
"d  c #6D1E38",
"f  c #403F37",
"g  c #7E2621",
"h  c #673C20",
"j  c #763521",
"k  c #652033",
"l  c #6A2135",
"z  c #6B263B",
"x  c #742134",
"c  c #792234",
"v  c #752A37",
"b  c #7B2C35",
"n  c #752838",
"m  c #7F3138",
"M  c #43423A",
"N  c #48463D",
"B  c #6F4022",
"V  c #7B4627",
"C  c #7C3A43",
"Z  c #4F4D44",
"A  c #514E44",
"S  c #56544A",
"D  c #59574B",
"F  c #5D5B4F",
"G  c #5D5B50",
"H  c #7F4249",
"J  c #605E52",
"K  c #666457",
"L  c #676558",
"P  c #686659",
"I  c #6A685B",
"U  c #832721",
"Y  c #832823",
"T  c #9C2E28",
"R  c #812433",
"E  c #8A2733",
"W  c #8C2934",
"Q  c #932A34",
"!  c #9B2D32",
"~  c #843637",
"^  c #8A3A39",
"/  c #8B3B39",
"(  c #A12F29",
")  c #A3302A",
"_  c #A53E2F",
"`  c #B9362F",
"'  c #A12F33",
"]  c #AE3233",
"[  c #A53E30",
"{  c #B53532",
"}  c #BE3731",
"|  c #BD3931",
" . c #C3352E",
".. c #C23731",
"X. c #C83730",
"o. c #C53932",
"O. c #C93B33",
"+. c #D03C33",
"@. c #8A512C",
"#. c #914A33",
"$. c #934239",
"%. c #9E4B3A",
"&. c #9F5637",
"*. c #AD432D",
"=. c #AF4A34",
"-. c #A24E3A",
";. c #B44E31",
":. c #A95939",
">. c #B35D3D",
",. c #AA6234",
"<. c #AD6739",
"1. c #B6603E",
"2. c #BA633E",
"3. c #B86B39",
"4. c #CD4035",
"5. c #CD493D",
"6. c #D04236",
"7. c #D04538",
"8. c #D64B39",
"9. c #D94E3A",
"0. c #DC533B",
"q. c #DE583D",
"w. c #E85F3F",
"e. c #C56E3F",
"r. c #CF693E",
"t. c #D1683D",
"y. c #CE783F",
"u. c #83434A",
"i. c #9C5B4F",
"p. c #925754",
"a. c #896C4E",
"s. c #B86441",
"d. c #AF7243",
"f. c #D25746",
"g. c #D25847",
"h. c #C46C40",
"j. c #CD7541",
"k. c #CE7840",
"l. c #D07741",
"z. c #D27942",
"x. c #DA7F43",
"c. c #D0764A",
"v. c #D9785B",
"b. c #E96441",
"n. c #EA6B47",
"m. c #E96B49",
"M. c #EB7850",
"N. c #BC9C6A",
"B. c #BB977A",
"V. c #DD8344",
"C. c #DD8749",
"Z. c #E08445",
"A. c #E48848",
"S. c #E69A5A",
"D. c #C18461",
"F. c #CC9761",
"G. c #D09970",
"H. c #E0906C",
"J. c #C3B17F",
"K. c #E6A67B",
"L. c #E8AD7F",
"P. c #ECB877",
"I. c #C4B483",
"U. c #E8AE81",
"Y. c #F2B783",
"T. c #F4BF88",
"R. c #ECC78A",
"E. c #F5C28A",
"W. c #F3D38F",
"Q. c #E4D29B",
"!. c #F8DA9A",
"~. c #F9EBA9",
"^. c #FAF2AC",
"/. c #FDFAB8",
/* pixels */
"L L L L L L L L L L L L L L L L L L L L L L L L L L L L L L L L L L L L L L L L L L L L L L L L L L ",
"L L L L L L L L L L L L L L L L L L L L L L L L L L L L L L L L L L L L L L L L L L L L L L L L L L ",
"L L L L L L L L L L L L L L L L L L L L L L L L L L L L L L L L L L L L L L L L L L L L L L L L L L ",
"L L L L L L L L L L L L L L L L L L L L L L L L L L L L L L L L L L L L L L L L L L L L L L L L L L ",
"L L L L L L L L L L L L L L L L L L L L L L L L L L L L L L L L L L L L L L L L L L L L L L L L L L ",
"L L L L L L L L L L L L L L L L L L L L L L L L L L L L L L L L L L L L L L L L L L L L L L L L L L ",
"L L L L L L L L K K K K K K K K K K K L K K K K K K K K K K L K K K K L K K K K K L K K K K K L L L ",
"L L L L L L K L L L L L L L L L L L L L L L L L L L L L L L L L L L L L L L L L L L L L L L L K L L ",
"L L L L L L L K K L L P P P P P P P P I P L L L L L L I L L I L I P P P L P I P P I P P P P L L K L ",
"L L L L L L L K N f 7 M f M f f f f f M f f f M f f M M f f f f f M f f f f f M f f 7 M 7 7 Z K L K ",
"L L L L L K P D %                                                                         O 3 K L K ",
"L L L L L K L D &                                                                           4 K L K ",
"L L L L L K L D &   = g U U U U Y U U U U U U U U U U U Y Y Y Y Y U U U U Y U U g r e > o O 4 K L K ",
"L L L L L K L D &   ; ` ..}  . ...}  ............... . .o.| ......o...o.....X.o.| x d e @   4 K P L ",
"L L L L L K P D &   ; ..O.5.f.g.g.f.f.5.+.6.6.6.4.6.6.6.6.6.4.7.+.O.O.O.O.O.O.O.o.x z e @ . 4 K K K ",
"L L L L K K P D &   ; | X.v.K.L.U.U.K.b.0.q.q.q.q.q.q.q.q.q.q.q.8.O.O.o.o.O.O.O...x d e @ . 4 L L K ",
"L L L K K K K D &   ; | o.H.!.~.~.~.!.M.w.b.b.b.b.b.b.b.b.b.b.b.9.+.o.O.o.O.o.O...x d e @ . 4 P K K ",
"L L K L K D Z M $   ; } o.v.Y.E.T.T.Y.m.w.b.b.b.b.b.b.b.b.b.b.b.w.O.o.O.o.O.o.O...x d e @ . * A A F ",
"L L K L F 6 O O   . ; } o.0.m.m.n.n.m.b.b.b.b.b.b.b.b.b.b.b.b.b.w.O.o.o.O.O.o.O...x d e @   . O $ 7 ",
"L L K L F 4       . - | o.9.w.b.b.b.b.b.b.b.b.b.b.b.b.b.b.b.b.n.g.O.o.O.O.o.O.O...x d e @       O 7 ",
"L L K P G 4   + 0 w j | o.4.0.0.0.9.0.9.0.9.0.0.9.9.9.0.0.0.9.0.8.O.O.O.O.O.O.O...x a y 9 8 : . O 7 ",
"L L L I G 4   : ,.V.r.4.o.O.O.O.O.O.O.o.O.O.O.O.O.O.O.O.o.O.O.o.O.o.O.O.o.o.o.O...x a b [ *.q   O 7 ",
"L L K I F 4   : ,.A.r.4.O.O.O.O.o.o.X.o.o.o...o...o.o.o.o.o.o.o.o.o.o.O.O.o.o.O...c a b [ *.q . O 7 ",
"L L K I F 4   : ,.C.r.....O.O.O.o.O...Q E E W W W W W W E W W W W E E ' o.O.O.O...c a c [ *.q . O 7 ",
"L L K P G 4   : ,.Z.t.O.O.+.O.O.O.O...c a a i u a a i a a a a a a a s Q O.O.O.O...c a b [ *.q   O 7 ",
"L L K I G 4   , d.S.c.{ { ` { { { { ] x a z C H m b m v v b v m n k s E { { { { { c a c [ *.q . O 7 ",
"L L K P F 4   1 N.!.G.~ R R R c R R c l u u.B.J.D.s.1.1.1.1.1.2.%.x a x R R R R c s a b [ *.q   O 7 ",
"L L K P F 4   2 I./.I.z i a i a a a a s t p.Q.^.P.C.V.V.V.V.x.A.1.n a a a i i a a s a c _ *.q   O 7 ",
"L L L I G 4   2 J.^.I.m m m m ~ m m m m b i.L.R.F.<.,.,.,.,.y.x.2.^ b m m ~ b ~ b ~ b ^ =.;.w   O 7 ",
"L L K I G 4   2 I.^.R.c.y.l.l.l.l.l.l.l.y.y.V.V.V +   X   + 3.x.z.l.z.z.k.l.l.l.y.z.l.l.l.k.@.  O 7 ",
"L L K P F 4   2 I./.W.A.Z.Z.Z.Z.Z.Z.Z.Z.C.V.x.x.w .       X 3.x.x.V.Z.V.Z.Z.Z.Z.Z.Z.Z.Z.A.Z.@.  . 7 ",
"L L L P F 4   & S D.a.-.-.-.-.-.-.-.-.-.%.:.y.x.&.B h h w w e.x.h.:.%.-.-.-.-.-.-.-.-.#.V B 0   O 7 ",
"L L K I F 4     $ * , k l s k l s l l l a / j.x.z.k.k.k.y.l.z.Z.>.b l l l l l l l l x r > + X   O 7 ",
"L L K L F 5 . O .   @ a s s s s s s s a u ~ h.z.l.z.z.l.z.l.k.z.>.x a a a a a a a a s e @   . O # f ",
"L L L L K Z 7 6 $   - ! ' ' ' ' ' ' ! x a n / $.$.$.$.$.$.$.%.u.^ l a s s s a s s a x e #   * 7 f D ",
"L L L K L L L D &   ; | O.o.o.O.o.O.} x a a a a a a a a a s p a a a a a a a a a a a s e @ . 4 L L L ",
"L L L L K K L F &   ; | O.o.O.o.O.O.} c x c x x x x x x x x x x x x x x x x x x x s d e @ . 4 L L L ",
"L L L L L L P D &   ;  .O.o.O.O.X.O.X.{ ] ] ] ] ] ] ] ] ] ] ] ] ] ] ] ] ] ] ] { ] l d e @ . 4 K L K ",
"L L L L L K L D &   ; ..O.O.O.O.+.O.O.O.O.+.+.+.O.+.+.+.+.+.+.+.O.O.+.+.+.+.+.+.O.x d e @   4 K L K ",
"L L L L L K L D &   - T ( ( ( ( ( ( ( ( ( ( ( T ( ( ( ( ( ( ( ( ) ) ) ) ( ( ( ( T y y < o . 4 K L K ",
"L L L L L K K D &     . .   . .   . . . . . . . .   . . .   . . .   . . . . . . . . .     . 4 K L K ",
"L L L L L K P D $                                                                           3 K L K ",
"L L L L L K P J 7 6 6 6 6 6 6 6 6 6 6 6 6 6 6 6 6 6 6 6 6 6 6 6 6 6 6 6 6 6 6 6 6 6 6 6 6 6 N L P K ",
"L L L L L L L K J J J J J J J G J J J J G J G J J J J J J J J J J J J J G G J G G J G J G G K L K L ",
"L L L L L L K L P P P P P P P P P P P P P P P P P P P P P P P P P P P P L I P P I L I L I P L L L L ",
"L L L L L L P L K K L K K K K P K K L L L L K K K K K K K K K K K K K K K K L K L K L L L K L L L L ",
"L L L L L L L L L L L L L L K P L L L L L L L L L L P K K P L L L K P K L L L L L L L L L L L L L L ",
"L L L L L L L L L L L L L L L K L L L L L L L L L L K P P K L L L P K P L L L L L L L L L L L L L L ",
"L L L L L L L L L L L L L L L L L L L L L L L L L L L L L L L L L L L L L L L L L L L L L L L L L L ",
"L L L L L L L L L L L L L L L L L L L L L L L L L L L L L L L L L L L L L L L L L L L L L L L L L L "
};
