/* XPM */
static char *result[] = {
/* columns rows colors chars-per-pixel */
"50 50 174 2 ",
"   c #040302",
".  c #0B0B09",
"X  c #110C06",
"o  c #1D0F0A",
"O  c #13110E",
"+  c #161512",
"@  c #191815",
"#  c #26120D",
"$  c #2B150D",
"%  c #251B0D",
"&  c #2E190E",
"*  c #271813",
"=  c #341C10",
"-  c #391D12",
";  c #23221D",
":  c #38271F",
">  c #37281B",
",  c #262520",
"<  c #292721",
"1  c #2D2C25",
"2  c #3A3327",
"3  c #35342D",
"4  c #3C3429",
"5  c #383730",
"6  c #3D3B34",
"7  c #4B2618",
"8  c #443118",
"9  c #553C1D",
"0  c #582F21",
"q  c #4B3C27",
"w  c #443F34",
"e  c #792F29",
"r  c #633122",
"t  c #6F3423",
"y  c #743624",
"u  c #7A3A26",
"i  c #7B322A",
"p  c #7F3C28",
"a  c #4E412D",
"s  c #5B4121",
"d  c #464034",
"f  c #45433B",
"g  c #49453C",
"h  c #49483F",
"j  c #644927",
"k  c #6F4F27",
"l  c #7A562B",
"z  c #6E4839",
"x  c #4D4B42",
"c  c #514F45",
"v  c #535147",
"b  c #555349",
"n  c #58564B",
"m  c #5C5A4E",
"M  c #5F5D51",
"N  c #6B554B",
"B  c #7E5947",
"V  c #755D4D",
"C  c #795B49",
"Z  c #655F53",
"A  c #705F50",
"S  c #7D624F",
"D  c #666457",
"F  c #6A6355",
"G  c #676558",
"H  c #686659",
"J  c #6C6A5D",
"K  c #716151",
"L  c #7D6450",
"P  c #746853",
"I  c #863B2C",
"U  c #8C3E2E",
"Y  c #8A442A",
"T  c #8A4A2C",
"R  c #91422E",
"E  c #8F4230",
"W  c #864B3A",
"Q  c #964630",
"!  c #9A4630",
"~  c #964A33",
"^  c #9D4A32",
"/  c #924F39",
"(  c #87523E",
")  c #8E533E",
"_  c #94563E",
"`  c #A3472E",
"'  c #A3482F",
"]  c #BB552E",
"[  c #A24C32",
"{  c #A84F35",
"}  c #A55135",
"|  c #AB5335",
" . c #A15338",
".. c #B15737",
"X. c #B35937",
"o. c #BC5C36",
"O. c #B45D3A",
"+. c #BB5E38",
"@. c #8A6633",
"#. c #946734",
"$. c #B5623D",
"%. c #BE6139",
"&. c #A1733A",
"*. c #C15F38",
"=. c #CF6337",
"-. c #C1623A",
";. c #CB673C",
":. c #C66B3D",
">. c #CC683D",
",. c #C9713F",
"<. c #855542",
"1. c #885440",
"2. c #805845",
"3. c #82634E",
"4. c #8D634A",
"5. c #966246",
"6. c #9C6345",
"7. c #806450",
"8. c #9B7657",
"9. c #A56242",
"0. c #C86C43",
"q. c #C77047",
"w. c #CC7641",
"e. c #CE7842",
"r. c #CC7B4D",
"t. c #D17C43",
"y. c #BC8542",
"u. c #99896B",
"i. c #A69574",
"p. c #A89776",
"a. c #C88544",
"s. c #D58345",
"d. c #D88847",
"f. c #DA8C49",
"g. c #CC9247",
"h. c #CB9248",
"j. c #CD994C",
"k. c #DE924B",
"l. c #D6994C",
"z. c #DA9F4E",
"x. c #D1865C",
"c. c #E0974C",
"v. c #E39A4E",
"b. c #E69F50",
"n. c #DBA14F",
"m. c #DDA350",
"M. c #E5A14F",
"N. c #E9A34F",
"B. c #E7A150",
"V. c #EAA552",
"C. c #EDAA54",
"Z. c #EBAA5B",
"A. c #EEB056",
"S. c #EFB358",
"D. c #D38C61",
"F. c #D9986D",
"G. c #ECAF62",
"H. c #ECB46F",
"J. c #E2A672",
"K. c #EEB672",
"L. c #EEBA75",
"P. c #EEBB79",
"I. c #E5AF81",
"U. c #F0BF80",
"Y. c #EBC089",
"T. c #EDC693",
"R. c #EFC89D",
"E. c #F2CC9E",
"W. c #F3CEA2",
"Q. c #EAD5A6",
"!. c #F5D3A5",
"~. c #F5D5AA",
"^. c #F7DCAD",
"/. c #F7E0B0",
/* pixels */
"G G G G G G G G G G G G G G G G G G G G G H J J J J J J J J J J H G G G G G G G G G G G G G G G G G ",
"G G G G G G G G G G G G G G G G G G F G G M v v v v v v v v v v n G D D G G G G G G G G G G G G G G ",
"G G G G G G G G G G G G G G G G G G D D D 6 + + @ + + + + + + @ < D D D D G G G G G G G G G G G G G ",
"G G G G G G G G G G G G G D G G H H H G G 5                     @ H G G H H G G G G G G G G G G G G ",
"G G G G G G G G G G G G G D D D h g g g g q 9 9 9 9 9 9 9 9 9 9 q h g g f x n G D G G G G G G G G G ",
"G G G G G G G G G G D G G G D n O O O O + j h.h.g.g.g.g.h.h.h.h.&.O O O O + 6 H G G G D G G G G G G ",
"G G G G G G G G G G G G D D D v X X X X X k C.C.C.C.C.C.C.C.Z.C.y.X X X . . 3 G D D D G G G G G G G ",
"G G G G G G G G G G G G M x d w s s s 9 s #.c.c.c.v.c.c.c.c.z.k.a.s s s s s a w f m G G G G G G G G ",
"G G G G G G G G G F D H c ;   % V.A.A.A.A.v.s.s.s.s.s.s.s.s.t.s.f.A.A.C.S.m.l   . x G G D D D G G G ",
"G G G G G G G G G G H J v ;   % c.V.V.V.V.c.s.t.s.s.s.s.s.s.s.s.f.V.V.V.C.l.l   . x J G G D G G G G ",
"G G G G G G G F D D 6 1 w P u.u.V.V.N.V.N.v.v.v.c.v.v.c.v.c.c.v.k.k.k.c.V.M.y.@.@.q 1 3 m G D G G G ",
"G G G G G G G G G D < . 2 i.Q.Y.V.V.V.C.V.C.V.V.N.V.V.V.N.V.V.N.c.d.d.k.V.V.M.n.j.> X @ v G D G G G ",
"G G G G G G G G G D ;   4 p./.T.C.V.V.b.b.N.b.b.b.V.N.N.V.N.V.V.v.d.s.k.V.V.V.C.n.8   + c D D D G G ",
"G G G G G G G G D D <   2 p.^.T.Z.V.v.k.f.c.k.k.k.f.c.b.V.V.V.V.v.d.s.k.V.V.V.V.n.8   + v G D D G G ",
"G G G G G G G G G D ;   2 p.^.T.V.C.c.d.s.s.t.s.s.t.s.v.C.V.C.N.v.d.s.k.V.V.N.V.n.8 . O v D D G G G ",
"G G G G G G G F G D ;   2 p.^.T.C.V.c.d.t.s.f.d.f.d.f.b.V.V.N.V.M.e.s.k.V.V.N.C.n.8   + v G D G G G ",
"G G G G G G G D G D <   4 i.^.T.V.C.f.:.:.t.b.b.V.b.b.V.V.V.V.V.v.:.*.s.b.C.V.V.z.8   + c G D G G G ",
"G G G G G G G D G D ,   4 i.^.T.V.Z.d.:.o.s.C.C.C.C.C.C.C.C.C.V.v.+.o.t.b.V.V.V.z.8   + v G D G G G ",
"G G G G G G G D G D ;   2 p.^.T.V.C.k.t.w.s.k.k.c.f.c.k.c.f.k.k.f.w.w.f.V.V.V.V.n.8   + c G D G G G ",
"G G G G G G G D D D ;   2 p.^.T.V.V.V.v.v.d.:.0.:.:.;.:.:.:.:.:.e.v.v.M.V.V.V.V.n.8   + v G D G G G ",
"G G G G G G G D G D ;   2 i.^.T.C.V.V.Z.V.d.-.+.*.*.*.*.*.*.%.%.,.V.C.V.V.V.V.V.n.8   + v F D G G G ",
"G G G H G G G D G D ;   : 8.I.J.K.L.G.V.V.k.t.t.t.t.t.t.t.t.t.t.d.V.V.V.V.V.c.f.a.8   + v H G G G G ",
"G G G G G G G D G D ;   & T 0.r.E.~.U.Z.V.V.b.b.B.B.V.b.V.V.V.b.V.V.V.V.V.V.s.-.%.-   + c G G G G G ",
"G G G G G G G G G G ;   = Y >.t.E.~.U.Z.V.V.V.C.V.C.V.V.V.V.V.V.V.V.V.V.V.b.s.+.o.=   O c G G G G G ",
"G G G G G G G D G D ;   * Y ;.9.F.F.J.P.P.P.P.L.G.V.V.V.V.V.V.N.V.V.C.k.d.s.w.-.+.-   + c H Z G G G ",
"G G G G G G G G G D ;   & Y ;.%.o.] D.R.^.~.~.~.K.V.V.V.V.V.V.C.V.V.C.s.-.+.-.-.+.-   + c G G G D G ",
"G H G G D D G G G D ,   & Y ;.%.-.o.D.T.!.E.W.W.H.N.N.V.V.V.V.N.V.B.C.s.:.%.%.-.+.-   + c G G G F G ",
"G G G G D D D D G Z ,   $ u ..| *.*.q.x.x.x.x.x.r.e.e.e.w.e.e.e.e.e.e.%.| | ..-.+.-   + c G Z G G v ",
"G G G D G H J J J H ;   # t } [ +.-.-.-.-.-.-.-.-.-.-.-.-.-.:.-.%.-.-...[ ' ..:.+.=   + b J J J J x ",
"G G D D M b b b b b < # - u { [ -.-.-.-.-.+.-.-.-.%.-.-.-.+.+.o.o.o.%.| R ! { %.X.7 $ * w b b b b 6 ",
"G D G G h ; ; ; * ; 0 t p R [ [ +.-.-.-.-.-.-.-.-.-.-.%.-.+.| { { { { ! I I ! } } I u r : ; ; ; * @ ",
"G D G G 6           y [ { [ ^ [ -.-.-.-.-.-.-.-.-.-.-.-.-.+.[ ! ^ ^ ^ U i i I ^ ! [ | U *           ",
"G G G G w # o o o o y Q ^ ^ ^ [ -.-.-.-.-.-.-.-.-.-.-.-.%.O.} ^ [ [ [ U i i U [ ^ ^ [ Y - o o o o X ",
"G G G G C ~ Q ~ Q ~ ^ ~ ^ ^ ^ { %.-.%.-.-.-.-.-.%.-.-.o.%.o.} ^ ^ ! [ U i i U ' ^ ^ ^ ^ ! Q Q ^ Q y ",
"G G G G B ^ ' ` ' ' ' ' [ ^ ^ [ %.-.-.-.-.-.-.-.-.-.-.-.-.%.} ^ ^ ^ ^ U i i U ^ ^ ' ^ ^ ^ ` ^ ' ' y ",
"G G G G V <.1.) 1.1.1.1.)  .| | %.-.-.-.-.%.-.-.%.%.%.o.O.| [ ^ ^ ^ [ U i i U ^ ! ^ ^ ^ ) <.) <.1.z ",
"G G F D G K F F A F F F S 9.*.+.-.%.-.-.-.-.-.-.-.-.%.} ' [ ^ ^ [ ^ [ U i i U [ ^ ^ [ ~ C F F F F Z ",
"G G G G D D G D H G F G L 9.-.-.-.%.-.o.%.-.%.%.%.-.%.} ^ ^ ^ ^ ~ ^ [ U i i U ^ ^ ^ ^ / A G G G G G ",
"G G G G D G G G G G 3.4.6.$.-.*.-.-.+................._ <.<.<.<.<.1.<.W U U U U U ( <.B A G F G G G ",
"G G G G G D G G G G 9.%.-.-.-.-.-.:...[ ^ ^ ^ ^ ^ ' ~ K D D G G G G H C ^ ^ U e i N G G G G G G G G ",
"G G G G G F G G G F 9.-.-.-.-.%.-.-.X.[ ^ [ ~ ^ ^ [ ~ V G G G G G G D B ~ ! I e i N G G G G G G G G ",
"G G G G G G G 3.9.6.$.;.+...| | { .._ 2.C C C C C C V F G F G F G G D A C B 1.Q E V G G G G G G G G ",
"G G G G G G F 5.=.-.-.=.+.| ! ^ ^ [ ( F G G G G G G G G G G G G G G G G H G <.[ ^ V G G G G G G G G ",
"G G G G G G F 4.%.$.+.9.O. .~ ~ ~ ~ <.F G G G G G G G G G G G G G Z G G G F 2.~ / V G G G G G G G G ",
"G G G G G G D K 7.7.L L L V A V V V K F G G G G G G G G G G G G G G G G D G F V V F G G G G G G G G ",
"G G G G G D G D G Z G G F G F H G D F G D G G G G G G G G G G G G G G G D D F F G D D G G G G G G G ",
"G G G G G G G G G G G D G G F G D D G G G G G G G G G G G G G G G G G G G G G G D D G G G G G G G G ",
"G G G G G G G G G F G G G G G F F G G G G G G G G G G G G G G G G G G G G G G F D D G G G G G G G G ",
"G G G G G G G G G G G G G G G G G G G G G G G G G G G G G G G G G G G G G F H H G G G G G G G G G G ",
"F G G G G G G G G G G G G G G G G G G G G G G G G G G G G G G G G G G G G G G G G G G G G G G G G G "
};
