/* XPM */
static char *result[] = {
/* columns rows colors chars-per-pixel */
"50 50 190 2 ",
"   c #010101",
".  c #080504",
"X  c #060905",
"o  c #0A0A05",
"O  c #02070A",
"+  c #050F0A",
"@  c #0B0C09",
"#  c #140B08",
"$  c #0D1406",
"%  c #0A1906",
"&  c #07100A",
"*  c #0A150D",
"=  c #13140C",
"-  c #1D160D",
";  c #141C0A",
":  c #0D1F12",
">  c #151412",
",  c #191715",
"<  c #1B1A17",
"1  c #1E1D19",
"2  c #270E0A",
"3  c #27100A",
"4  c #2B1A0D",
"5  c #39160F",
"6  c #311E0D",
"7  c #391810",
"8  c #1D290E",
"9  c #0F2014",
"0  c #132415",
"q  c #1E2C11",
"w  c #19241A",
"e  c #162B19",
"r  c #1A321D",
"t  c #26250D",
"y  c #212716",
"u  c #202D10",
"i  c #22211D",
"p  c #372612",
"a  c #243213",
"s  c #2B3612",
"d  c #293B15",
"f  c #353412",
"g  c #383714",
"h  c #3A3A15",
"j  c #143426",
"k  c #173A26",
"l  c #1D3D25",
"z  c #292823",
"x  c #2B2B29",
"c  c #2D3421",
"v  c #203F26",
"b  c #36342E",
"n  c #38362F",
"m  c #393730",
"M  c #3D3B34",
"N  c #442812",
"B  c #473918",
"V  c #6F2C1E",
"C  c #722A1D",
"Z  c #62391E",
"A  c #613928",
"S  c #2E4319",
"D  c #37481B",
"F  c #354E1C",
"G  c #39521E",
"H  c #1D4026",
"J  c #1F4129",
"K  c #224226",
"L  c #2B4C26",
"P  c #234529",
"I  c #264A2C",
"U  c #2E5129",
"Y  c #335425",
"T  c #3D5720",
"R  c #3E5B23",
"E  c #3E6124",
"W  c #4A481E",
"Q  c #52501C",
"!  c #415D22",
"~  c #425928",
"^  c #565821",
"/  c #44423A",
"(  c #48463D",
")  c #4A483F",
"_  c #5E5D30",
"`  c #6F4927",
"'  c #695326",
"]  c #775F33",
"[  c #456425",
"{  c #496626",
"}  c #456B27",
"|  c #4B6A27",
" . c #49602A",
".. c #4D6E29",
"X. c #556A29",
"o. c #4F712A",
"O. c #52732B",
"+. c #5C732A",
"@. c #567B2E",
"#. c #587D2E",
"$. c #646223",
"%. c #6B6926",
"&. c #63762B",
"*. c #6D762E",
"=. c #6D7C2D",
"-. c #75732A",
";. c #777A2C",
":. c #776332",
">. c #4D4C43",
",. c #504E45",
"<. c #555449",
"1. c #5A554A",
"2. c #57594C",
"3. c #595D4F",
"4. c #515151",
"5. c #5B5F50",
"6. c #5B5C5E",
"7. c #67584B",
"8. c #755C4D",
"9. c #785D4F",
"0. c #605E52",
"q. c #666357",
"w. c #686457",
"e. c #676558",
"r. c #69665A",
"t. c #67685B",
"y. c #6C6A5D",
"u. c #706D5F",
"i. c #706D60",
"p. c #757264",
"a. c #797668",
"s. c #706F77",
"d. c #777674",
"f. c #823322",
"g. c #973226",
"h. c #A0372A",
"j. c #AC3D2C",
"k. c #B13D2E",
"l. c #C23F31",
"z. c #824F27",
"x. c #8F4A2A",
"c. c #9C4E2E",
"v. c #985B2C",
"b. c #AC432E",
"n. c #A2492F",
"m. c #B2412E",
"M. c #A35E2E",
"N. c #A84B30",
"B. c #B74230",
"V. c #B44E31",
"C. c #BB4A31",
"Z. c #A75F30",
"A. c #B06032",
"S. c #B56E37",
"D. c #BD7339",
"F. c #C44833",
"G. c #C16737",
"H. c #CB6B3A",
"J. c #C8793A",
"K. c #D77F41",
"L. c #6F822E",
"P. c #7D8230",
"I. c #938F2F",
"U. c #828631",
"Y. c #8A8731",
"T. c #858832",
"R. c #8C8A32",
"E. c #928E34",
"W. c #939135",
"Q. c #9B9536",
"!. c #979A37",
"~. c #9E9837",
"^. c #9F9B39",
"/. c #A78B38",
"(. c #AD923A",
"). c #A49D3A",
"_. c #A5A33C",
"`. c #ADA73D",
"'. c #E1863F",
"]. c #878542",
"[. c #B1AF6A",
"{. c #B4B16C",
"}. c #D28341",
"|. c #DC8944",
" X c #D78849",
".X c #D69155",
"XX c #E58943",
"oX c #EC9449",
"OX c #E79C5C",
"+X c #FFFEFE",
/* pixels */
"e.e.e.e.e.e.e.e.e.e.e.e.e.e.e.e.e.e.e.e.e.e.e.e.e.e.e.e.e.e.e.e.e.e.e.e.e.e.e.e.e.e.e.e.e.e.e.e.e.e.",
"e.e.e.e.e.e.e.e.e.e.e.e.e.e.e.e.e.e.e.e.e.e.e.e.e.e.e.e.e.e.e.e.e.e.e.e.e.e.e.e.e.e.e.e.e.e.e.e.e.e.",
"e.e.e.e.e.e.e.e.e.e.e.e.e.e.e.e.e.e.e.e.e.e.e.e.e.e.e.e.e.e.e.e.e.e.e.e.e.e.e.e.e.e.e.e.e.e.e.e.e.e.",
"e.e.e.e.e.e.e.e.e.e.e.e.e.e.e.e.e.e.e.e.e.e.e.e.e.e.e.e.e.e.e.e.e.e.e.q.e.e.e.e.e.e.e.e.e.e.e.e.e.e.",
"e.e.e.e.e.e.e.e.e.e.e.e.e.e.e.e.e.e.e.e.e.e.e.e.e.e.q.t.e.e.e.e.e.w.e.w.w.w.w.q.w.w.q.e.e.e.e.e.e.e.",
"e.e.e.e.e.e.e.e.e.e.e.e.e.e.e.e.e.e.e.e.e.e.e.q.e.e.e.q.e.e.e.e.e.e.w.e.e.e.e.w.e.q.e.q.q.e.e.e.e.e.",
"e.e.e.e.e.e.e.e.e.e.e.e.e.e.e.e.e.w.e.w.e.w.e.q.e.e.q.q.q.q.e.e.e.w.e.w.q.q.q.q.q.e.q.q.r.e.e.e.e.e.",
"e.e.e.e.e.e.e.e.e.e.e.e.e.e.e.e.q.q.q.q.q.q.q.q.q.q.q.q.q.q.q.q.q.q.t.m X @ @ @ + . = q.e.q.e.e.e.e.",
"e.e.e.e.e.e.e.e.e.w.e.e.e.e.q.t.i.i.i.u.i.i.i.u.i.i.i.i.y.i.i.i.u.y.a.n             X e.e.e.e.q.e.e.",
"e.e.e.e.e.e.e.e.e.e.e.w.e.q.e.1.n m n n n n n n m b n n m m n n n n m c a a a a ;   @ q.e.e.e.w.e.e.",
"e.e.e.e.e.e.e.e.e.e.e.e.q.e.i./                                       a #.....@.a   @ e.e.e.w.e.e.e.",
"e.e.e.e.e.e.e.e.e.e.e.w.q.q.e.( o o o o o o o . o o o o o o o o o o o a ..[ [ ..u   @ 0.0.q.e.w.e.e.",
"e.e.e.e.e.e.e.e.w.e.w.q.e.1 . f W.Y.R.R.E.Y.R.E.Y.E.R.R.R.R.R.R.Y.Y.E.=.[ | [ ..a     @ . M i.q.e.e.",
"e.e.e.e.e.e.e.e.e.w.r.u.p.>   t ).W.W.W.W.W.W.W.E.W.W.W.W.W.W.E.W.W.~.=.[ | ..#.a         M i.q.e.e.",
"e.e.e.e.e.e.w.e.q.e.2.x b W Q $.Q.E.E.E.E.E.E.E.E.E.E.E.E.E.E.E.E.E.W.=.[ [ a a a d a O   M y.q.e.e.",
"e.e.e.e.e.e.e.w.e.i.>.    ;._.Q.E.E.W.W.W.W.W.E.W.W.W.W.W.W.W.W.W.E.Q.=.[ [     d #.[ .   M i.q.e.e.",
"e.e.e.e.e.e.e.e.0.w.) o X -.W.E.W.E.W.W.W.W.E.E.W.W.E.W.W.W.E.W.E.E.W.=.| | @ o d o.R .   M i.q.e.e.",
"e.e.e.e.e.e.w.y.1   ; ..[ Y.W.W.E.W.E.W.W.E.W.W.W.W.W.W.W.W.W.W.W.E.W.W.E.E.{ [ [ | [     M i.q.e.e.",
"e.e.e.e.e.e.q.t.<   ; o.[ T.W.W.W.W.W.W.W.W.W.W.W.W.W.W.W.E.W.W.W.W.E.W.W.E.O...o.O.[     M y.q.e.e.",
"e.e.e.w.e.w.q.t.<   ; ..[ U.W.E.E.W.E.W.W.E.W.W.W.W.W.W.W.W.W.E.W.E.W.W.W.R.a u q q 8 .   M i.q.e.e.",
"e.e.e.e.w.e.e.i.1   ; o.[ T.W.W.W.W.W.W.W.E.W.W.W.W.W.W.W.W.W.E.W.W.E.W.W.Y.              m i.q.e.e.",
"e.e.e.w.w.q.2.q.<   ; ..[ U.W.W.E.W.W.W.W.W.W.W.W.W.W.W.E.W.W.W.W.E.W.R.E.U.$ $ X   . * @ / y.q.e.e.",
"e.e.e.q.y.,.  . .   ; O.[ U.Q.W.E.E.R.R.E.E.R.W.E.E.W.W.E.E.E.E.R.E.W.=.[ { { o.a   @ w.e.e.e.e.e.e.",
"e.e.e.q.y.>.        % X.[ T.W.W.).Q.).^.^.^.).W.!.W.W.W.^.^.^.Q.^.!.^.L.[ | { ..a   @ q.e.e.e.e.e.e.",
"e.e.e.w.t.7.V V V C Z } [ T.Q.;.~  .h g g g f v.M.M.M.M.h g g g h v.A.' L U [ O.a   + q.q.w.e.e.e.e.",
"e.e.e.w.t.8.C.C.C.F.c.} [ U.~.*.j l O         g.B.j.k.k..         h.l.A l P [ o.a   @ q.e.w.e.e.e.e.",
"e.e.e.w.q.8.k.b.b.B.x.} [ U.^.*.l P @   > x x n.V.N.V.V.#   , x x N.C.` H P [ o.u   @ w.e.w.e.e.e.e.",
"e.e.e.w.q.8.m.b.b.m.x.} [ U.~.*.l K *   6.+X+X.XK.}.}.}.-   d.+X+X XXX:.k P [ o.a   @ e.e.q.e.e.e.e.",
"e.e.e.w.t.9.F.C.C.F.c.} [ T.).;.j H O   6.+X+XOX'.|.K.K.#   s.+X+X XXX] j P { o.a   @ w.e.w.e.e.e.e.",
"e.e.e.w.t.1.5 7 5 5 p ..[ +.+.&.*.*.$.%._ 4.4.B N ' (./.%.$.].{.[././.-.Y R [ ..u   @ w.e.w.e.e.e.e.",
"e.e.e.q.y.>.        % O.| { E +.).^.^.`.$.        s _.!.)._.~.I.E.W.Q.L.} | | O.a   X q.e.w.e.e.e.e.",
"e.e.e.e.t.<.> , , , y T G { } +.T.T.P.R.^ . o 4 6 B ;.-.-.-.-.-.;.P.R.&.{ { T T a > 1 w.e.w.e.e.e.e.",
"e.e.e.e.w.e.y.t.t.p.>.    G | [ [  .[ | S     D.oXz..             ! { [ [ [     m p.e.e.e.e.e.e.e.e.",
"e.e.e.w.e.w.w.q.q.y.)     T O.| | | | O.S     S.oX`               [ | | o.| X   m i.q.q.e.e.e.e.e.e.",
"e.e.e.e.e.e.e.e.q.e.5.>.>.y ; q U L L U r     S.XXZ.C f.D F F F F [ } S ; ; .   m y.q.e.e.e.e.e.e.e.",
"e.e.e.e.e.e.e.e.w.q.y.i.a.>   & v k l P e     S.|.H.C.F.X.........{ O.a         n i.q.e.e.e.e.e.e.e.",
"e.e.e.e.e.e.e.e.w.e.0.) ,.< & 0 U L K P e     S.|.G.j.b.{ { { } { [ o.a   X 1 < / y.q.e.e.e.e.e.e.e.",
"e.e.e.e.e.e.w.e.q.y.)     k I L | | L v e     S.|.G.j.b.{ { { { { { o.a   o e.y.e.q.e.e.e.e.e.e.e.e.",
"e.e.e.e.e.e.e.e.e.p.,.    r v L | | K P e     J.oXH.B.C.X...X.....| O.d   o 0.q.e.e.q.e.e.e.e.e.e.e.",
"e.e.e.w.e.w.q.e.z , 1 k r l K K L L K P e     4 6 4 2 3 = ; ; $ ; K U 0   X q.e.e.e.e.e.e.e.e.e.e.e.",
"e.e.e.e.w.e.y.p.<   + I K K K J l l P I e                         k P 9   X q.e.e.e.e.e.e.e.e.e.e.e.",
"e.e.e.q.e.5.) >.,   * P l H K K K K r e w i 1 i i >     * * * * * l I 9   . q.e.w.e.e.e.e.e.e.e.e.e.",
"e.e.e.q.y.,.        * P K K v K K K X   z a.t.t.a./   . l I I P I v P 0   X 0.e.w.e.e.e.e.e.e.e.e.e.",
"e.e.w.q.y.,.        + K l l l l H P O   i y.q.q.y.M     l l l l v l P :   . q.e.w.e.e.e.e.e.e.e.e.e.",
"e.e.e.w.e.q.,.2.<.<.2.5.3.5.5.3.5.5.<.<.5.e.e.q.e.0.<.2.5.5.5.5.3.3.5.2.<.<.w.e.w.e.e.e.e.e.e.e.e.e.",
"e.e.e.e.w.e.t.y.t.y.r.e.e.e.r.e.r.r.t.y.e.w.e.e.w.e.y.e.r.r.e.r.w.e.r.y.t.y.e.w.e.e.e.e.e.e.e.e.e.e.",
"e.e.e.w.e.w.w.w.e.w.w.w.w.w.e.e.q.w.w.q.w.w.q.w.e.w.w.q.w.q.q.w.w.w.w.w.w.q.q.e.w.e.e.e.e.e.e.e.e.e.",
"e.e.e.e.e.e.e.e.e.e.e.e.e.e.e.e.e.e.e.e.e.w.e.e.e.e.e.e.e.e.e.e.e.e.w.w.e.e.e.e.e.e.e.e.e.e.e.e.e.e.",
"e.e.e.e.e.e.e.e.e.e.e.e.e.e.e.e.e.e.e.e.e.e.e.e.e.e.e.e.e.e.e.e.e.e.e.e.e.e.e.e.e.e.e.e.e.e.e.e.e.e.",
"e.e.e.e.e.e.e.e.e.e.e.e.e.e.e.e.e.e.e.e.e.e.e.e.e.e.e.e.e.e.e.e.e.e.e.e.e.e.e.e.e.e.e.e.e.e.e.w.e.e."
};
