/* XPM */
static char *result[] = {
/* columns rows colors chars-per-pixel */
"50 50 191 2 ",
"   c #020201",
".  c #0D0505",
"X  c #0C0708",
"o  c #0F0E0C",
"O  c #140605",
"+  c #140808",
"@  c #15090C",
"#  c #190909",
"$  c #13120E",
"%  c #19150F",
"&  c #1F0A11",
"*  c #161411",
"=  c #191710",
"-  c #1E1D1A",
";  c #220C0B",
":  c #2C0E0C",
">  c #350F0E",
",  c #22150B",
"<  c #34110C",
"1  c #311D0F",
"2  c #2A0C16",
"3  c #330E1A",
"4  c #291C16",
"5  c #211F1B",
"6  c #341715",
"7  c #38111E",
"8  c #23221D",
"9  c #29231A",
"0  c #2E291E",
"q  c #362619",
"w  c #282722",
"e  c #2E2C26",
"r  c #302F29",
"t  c #35342E",
"y  c #3E3828",
"u  c #383730",
"i  c #3D3C34",
"p  c #441512",
"a  c #581A17",
"s  c #5C1D18",
"d  c #651D1A",
"f  c #681E1C",
"g  c #5C361C",
"h  c #5F391E",
"j  c #471224",
"k  c #4E1629",
"l  c #54182D",
"z  c #59182E",
"x  c #5C1531",
"c  c #5E1932",
"v  c #6E1E2D",
"b  c #641731",
"n  c #651C34",
"m  c #6B1E35",
"M  c #651C38",
"N  c #6D1C38",
"B  c #701F34",
"V  c #52282C",
"C  c #4B3122",
"Z  c #433C2B",
"A  c #752624",
"S  c #642737",
"D  c #6E2435",
"F  c #6B2238",
"G  c #712536",
"H  c #7B2835",
"J  c #712B3C",
"K  c #7E3037",
"L  c #46402E",
"P  c #484635",
"I  c #564C38",
"U  c #754728",
"Y  c #763542",
"T  c #783643",
"R  c #7D3A45",
"E  c #4C4B41",
"W  c #514E45",
"Q  c #525046",
"!  c #59574C",
"~  c #5C5A4F",
"^  c #5E5C51",
"/  c #605E53",
"(  c #726D4F",
")  c #656356",
"_  c #676558",
"`  c #69665A",
"'  c #6B695C",
"]  c #7A7051",
"[  c #7D7856",
"{  c #822524",
"}  c #952B25",
"|  c #9B2D26",
" . c #932A2B",
".. c #842533",
"X. c #832A35",
"o. c #852A35",
"O. c #8C2D35",
"+. c #922B35",
"@. c #9A2C34",
"#. c #8F3137",
"$. c #8A3A38",
"%. c #913437",
"&. c #923438",
"*. c #AB322B",
"=. c #B4342E",
"-. c #A43535",
";. c #A93032",
":. c #A23E3A",
">. c #B53532",
",. c #C33732",
"<. c #C53A32",
"1. c #CA3B33",
"2. c #D43D34",
"3. c #D93F37",
"4. c #874D2C",
"5. c #914139",
"6. c #9C4B3A",
"7. c #8D5031",
"8. c #BD4E34",
"9. c #B2453B",
"0. c #A55936",
"q. c #A8543B",
"w. c #9F6136",
"e. c #AA6738",
"r. c #B7623D",
"t. c #BC6A3C",
"y. c #CB4136",
"u. c #C34D3B",
"i. c #D44838",
"p. c #C8543D",
"a. c #D8553D",
"s. c #DB5B3D",
"d. c #E35D3F",
"f. c #C4733D",
"g. c #E8613F",
"h. c #823D44",
"j. c #924545",
"k. c #AE5448",
"l. c #A36045",
"z. c #DC5E40",
"x. c #CA6449",
"c. c #DE6241",
"v. c #CB7440",
"b. c #D77547",
"n. c #D37A43",
"m. c #DA7E43",
"M. c #E66441",
"N. c #E96642",
"B. c #E4714E",
"V. c #EB764F",
"C. c #93835F",
"Z. c #978E66",
"A. c #9D936A",
"S. c #A0946B",
"D. c #AD986D",
"F. c #B79977",
"G. c #B5AA7A",
"H. c #DD8243",
"J. c #D68048",
"K. c #D98349",
"L. c #DD975D",
"P. c #E5884A",
"I. c #E89D5D",
"U. c #C29B7B",
"Y. c #CB9F7C",
"T. c #C7A273",
"R. c #D8A57C",
"E. c #E4AD7C",
"W. c #EEB37E",
"Q. c #F2B47F",
"!. c #B8B081",
"~. c #CCA781",
"^. c #D1AE84",
"/. c #D7BE8B",
"(. c #DCC58D",
"). c #DFD397",
"_. c #E1C18F",
"`. c #E1C190",
"'. c #E8CC93",
"]. c #E1D497",
"[. c #E2D499",
"{. c #EED79B",
"}. c #F1D194",
"|. c #F1D699",
" X c #F4DD9E",
".X c #F6E3A3",
"XX c #FAE9A7",
"oX c #F7EAA8",
"OX c #FBECA9",
"+X c #FBF0AB",
"@X c #FCF6B1",
/* pixels */
"_ _ _ _ _ _ _ _ _ _ _ _ _ _ _ _ _ _ _ _ _ _ _ _ _ _ _ _ _ _ _ _ _ _ _ _ _ _ _ _ _ _ _ _ _ _ _ _ _ _ ",
"_ _ _ _ _ _ _ _ _ _ _ _ _ _ _ _ _ _ _ _ _ _ _ _ _ _ _ _ _ _ _ _ _ _ _ _ _ _ _ _ _ _ _ _ _ _ _ _ _ _ ",
"_ _ _ _ ) ) ) ) ) ) ) ) ) ) ) ) ) ) ) ) ) ) ) ) ) ) ) ) ) ) ) ) ) ) ) ) ) ) ) ) ) ) ) ) ) ) ) ) ) ` ",
"_ _ ) ` ` ' ' ` ' ` ` ` ' ` ' ' ` ' ' ` ' ` ` ` ' ` ' ' ` ' ' ` ' ` ` ` ' ` ' ' ` ' ' ` ' ' ` ` ` ) ",
"_ _ ` ^ ~ ! ! ! ! ! ! ! ! ! ! ! ! ! ! ! ! ! ! ! ! ! ! ! ! ! ! ! ! ! ! ! ! ! ! ! ! ! ! ! ! ! ! ^ ) _ ",
"_ ) ' E r w w w w w w w w w w w w w w w w w w w w w w w w w w w w w w w w w w w w w w w w w w u ) _ ",
"_ ) ' i o                                                                                     - ) _ ",
"_ ) ' i $   O : : # + @ @ + @ @ @ @ @ @ + @ + @ @ + @ @ + @ @ @ @ @ + @ @ + @ @ # @ ; : # .   8 ) _ ",
"_ ) ' i o . a =.*.v l x l z l z z z z l x z z x z z z z z z z z z z z z z z z z z z  .=.{ >   5 ) _ ",
"_ ) ' i o O f 3.<.H M M M M M m M M M M M M M M M M M M M M M M M n M M M n M M M N ;.i.| >   5 / ` ",
"` ) ' i $ O d 1.>.@.....#.#.H m m H %.%.o...o.................+.&.X.m M H #.&.O.....>.1.| >   8 ) _ ",
"` ) ' i o O d 2.1.<.,.1.z.c.9.D D &.c.c.y.,.<.<.<.<.<.<.<.<.<.a.c.u.H M &.z.z.i.<.<.<.2.} >   5 ) _ ",
") ) ' i @ + f y.1.1.1.i.d.g.9.G D :.N.M.y.1.1.1.1.1.1.1.1.1.<.s.M.p.K c %.d.g.i.<.1.1.2.| <   8 / ` ",
"_ ) ' i o . : s s s a A p.N.9.G m :.N.M.-.+.+.+.+.+.+.+.+.+.O.a.M.p.K M %.d.g.6.d a s s p #   9 ) ) ",
"_ ) ' i o   X . . . . < 8.g.9.D n -.M.d.o.b b b b b b b b b b u.g.8.H x #.s.z.A O O . .       - ) ) ",
"_ ) ' i o   * 0 0 0 0 C x.V.k.5.h.k.V.B.j.T T T T T T R T T T x.V.x.j.J k.B.b.7.0 0 0 0 8 o   - ) ) ",
"_ _ ' i o $ P A.A.A.A.D.E.Q.R.Y.U.R.Q.Q.Y.U.F.U.U.U.U.U.U.U.U.E.Q.E.Y.U.R.W.W.T.A.A.A.A.( 0   8 ) _ ",
"_ ' ' i $ = [ @XXXOXOXOXOXXXXXOXXXXXXXXXOXOXOXOXOXOXOXOXOXOXXXXXXXOXOX+XXXXXXXOXOXOXXX@X!.L   w ) _ ",
"_ ) ' i o = ] .X{.(././._._./.`.`.`.`.`.`._.`.`._._._.`._._._._._.`._._._._._.`./.`.{.oXG.y   8 ) ) ",
"_ ) ' i o = ] XX[.I = 4 S J J J J J J J J J J J J J J J J J J J J J J J J J J J Y Y ~.oXG.L   8 ) ) ",
"_ ) ' i o % ] XX).y   @ z N M n M b n n n n b n n b n n n b b n b n n n n n b n b b ~.oXG.Z X 8 ) ) ",
"_ ) ' i $ * ] XX).Z   @ 7 j k n n m n m n b n n n n n n m n n m n n n n n n F n M N ~.oXG.Z   8 ) ) ",
"_ _ ' i o * ] XX).Z   X O . 7 z m n n n n n n n n n F n n F n n F n n F n n n n M m ~.oXG.Z X 8 ) _ ",
"_ _ ' i $ * ] XX[.Z         2 z n n n n n F n F n F n n n n n m n n n n n n F n n F ~.oXG.Z   8 ) _ ",
"_ _ ' i * = ] OX].Z X X   X % 3 7 k F n F n F S F n F n F n F n F S n n F n n n n S Y.oXG.L   8 ) ) ",
"_ _ ' i $ * ] OX].y             . 2 n b z b b c b n c n z b b b c n b b z b b n b F ~.oXG.L   8 ) ) ",
"_ ) ' i o % ] oX[.I 0 0 0 0 0 0 e V T Y T T K T J R T T T T T T T T T K T T T Y Y R ^.oXG.L X 8 ) ) ",
"_ ) ' i o % ] XX XG.S.S.A.A.A.S.S.D.Y.U.U.U.U.U.U.U.U.U.U.U.U.U.U.U.U.U.Y.F.Y.U.U.U.'.+XG.y   8 ) ) ",
"_ _ ' i $ * ] oX.XOX+XOX+X+X+X+X+X+XOX+X+X+X+X+X+X+X+X+X+X+X+X+X+XOX+XOX+XOX+XOX+X+X.XOXG.Z   8 ) ) ",
"_ _ ' i o = ] XX X|.}.}.}.}.}.}.}.}.}.}.}.|.}._.(.(.(.(.'.}.}.}.}.}.}.}.}.}.}.|.}.}.}. XF.Z . 8 ) ` ",
"_ _ ' i o = ] .X|.L.n.J.J.J.J.J.J.J.K.m.H.P.e.q $ % = 1 U P.J.J.n.J.J.J.J.J.J.J.J.J.n.K.w.1   w ) ) ",
"_ ) ' i $ = [ @XXXI.H.K.H.H.H.H.H.H.H.H.f.P.e.1       # h P.f.H.P.H.H.H.H.H.H.H.H.H.P.P.e.q   5 ) _ ",
"_ ) ' i $ o P Z.C.l.q.q.q.q.q.q.q.q.q.q.v.m.t.U g g g h 7.P.f.r.q.q.q.q.q.q.q.q.q.0.4.4.h %   9 ) ) ",
"_ ) ' i o   $ 9 4 V G G G G D G D D G D k.m.n.f.f.f.f.f.n.H.P.$.v G G D G G D G G D 6 , @ .   - ) _ ",
"_ ) ' i $   X   X k N M n b b m n n b n f.n.f.n.m.n.n.n.n.f.n.X.n n n n b n n M M c #       . 8 ) _ ",
"_ _ ' Q i r -   + A @.@.@.@.@.@.@...M m 5.6.q.6.6.6.6.6.6.6.6.G n m n n n m n m m b ; X * w u P ) _ ",
"_ _ _ _ ' / t   O } 2.1.<.1.<.1.<.@.x M b M n n b n n n n n M M n n M n n n M b M n &   - Q ' ) _ _ ",
"_ _ _ _ _ / t   O } 1.<.<.<.<.1.<.@.m m D G m m m B B B m D B m m D m m m B v n b M &   - Q ' ) _ _ ",
"_ _ _ ) _ / t   # } 2.<.1.<.<.1.<.>.;.;.;.;.;.;.;.;.;.;.;.;.;.;.;.;.*.;.;.;.;.+.n n &   - Q ' _ _ _ ",
"_ _ _ _ _ ) t   O | 3.1.1.1.2.1.1.2.2.2.2.2.2.2.2.2.2.2.2.2.2.2.2.2.2.2.2.2.i.@.n n &   - Q ' ) _ _ ",
"_ _ ` ) ` ^ t   O { =.*.*.=.*.*.*.*.*.*.*.*.*.*.*.*.*.*.*.*.*.*.*.*.*.*.*.*.*...l l @   - W ' ) _ _ ",
"_ _ _ ) ` ^ u     O # O # # # # # O # # # # # O # # # O # + # # # # # O # # + O X X X   - W ' ) _ _ ",
"_ _ ` ) ` ^ u                                                                           - E ' ) _ _ ",
"_ _ ` ) ` ) P e r e e e e e e e e e e e e e e e e e e e e e e e e e e e e e e e e e e e i ! ` _ _ _ ",
"_ _ _ _ _ ) / ~ ~ ~ ~ ~ ~ ~ ~ ~ ~ ~ ~ ~ ~ ~ ~ ~ ~ ~ ~ ~ ~ ~ ~ ~ ~ ~ ~ ~ ~ ~ ~ ~ ~ ~ ~ ~ ^ ) ) ` _ _ ",
"_ _ _ _ _ _ ` ' ` ' ' ` ` ` ' ' ' ` ' ' ' ' ` ' ` ` ' ' ' ' ` ' ` ` ' ' ' ` ' ` ` ' ' ` ' ` ) _ _ _ ",
"_ _ _ _ _ _ ) _ _ ) ) _ _ ) ) _ ) _ _ ) _ ) _ ) ) _ _ ) ) ) _ ) ) _ _ ) ) _ _ ) _ _ ) _ ) ) ` ) _ _ ",
"_ _ _ _ _ _ _ _ _ _ _ _ _ _ _ _ _ _ _ _ _ _ _ _ _ _ _ _ _ _ _ _ _ _ _ _ _ _ _ _ _ _ _ _ ` ` ) ` _ _ ",
"_ _ _ _ _ _ _ _ _ _ _ _ _ _ _ _ _ _ _ _ _ _ _ _ _ _ _ _ _ _ _ _ _ _ _ _ _ _ _ _ _ _ _ _ _ _ _ _ _ _ ",
"_ _ _ _ _ _ _ _ _ _ _ _ _ _ _ _ _ _ _ _ _ _ _ _ _ _ _ _ _ _ _ _ _ _ _ _ _ _ _ _ _ _ _ _ _ _ _ _ _ _ "
};
